<?xml version="1.0" encoding="utf-8"?>
<!-- Generator: Adobe Illustrator 17.0.2, SVG Export Plug-In . SVG Version: 6.00 Build 0)  -->
<!-- License: none -->
<!DOCTYPE svg PUBLIC "-//W3C//DTD SVG 1.1//EN" "http://www.w3.org/Graphics/SVG/1.1/DTD/svg11.dtd">
<svg version="1.1" id="Layer_1" xmlns="http://www.w3.org/2000/svg" xmlns:xlink="http://www.w3.org/1999/xlink" x="0px" y="0px"
	 width="77.459px" height="79.717px" viewBox="268.472 357.226 77.459 79.717"
	 enable-background="new 268.472 357.226 77.459 79.717" xml:space="preserve">
<linearGradient id="SVGID_1_" gradientUnits="userSpaceOnUse" x1="307.2017" y1="357.226" x2="307.2017" y2="436.943">
	<stop  offset="0" style="stop-color:#3B8072"/>
	<stop  offset="1" style="stop-color:#316656"/>
</linearGradient>
<path fill="url(#SVGID_1_)" d="M345.931,397.771c0.016,23.238-15.153,39.173-37.291,39.172
	c-22.765-0.001-40.291-18.303-40.167-41.945c0.121-22.917,16.278-37.783,41.053-37.772
	C331.428,357.235,345.915,373.37,345.931,397.771z M307.722,394.196c9.599-4.816,18.372-12.121,30.636-6.286
	c-2.845-8.717-6.022-16.07-12.92-21.087c-6.718-4.887-14.347-3.042-17.901,4.452C304.006,378.717,304.383,386.282,307.722,394.196z
	 M292.091,365.237c-8.77,6.35-15.688,12.673-17.647,22.605c-0.394,1.999,0.459,5.14,1.913,6.454
	c7.268,6.569,15.805,8.148,25.749,5.241C295.324,389.195,289.498,378.99,292.091,365.237z M317.122,431.09
	c9.003-3.904,16.792-8.558,20.035-17.975c0.633-1.838,0.041-5.156-1.289-6.432c-6.442-6.172-14.191-7.886-23.446-5.285
	C319.817,410.381,318.297,420.346,317.122,431.09z M277.259,414.978c2.647,2.827,4.658,5.183,6.883,7.314
	c9.622,9.216,14.436,8.273,19.931-3.974c1.918-4.274,3.422-8.7-0.463-13.174C296.641,412.46,287.27,413.385,277.259,414.978z"/>
</svg>
